<svg width="18" height="16" viewBox="0 0 18 16" fill="none" xmlns="http://www.w3.org/2000/svg">
<path d="M0.603317 15.7954C0.518694 15.7959 0.434922 15.7785 0.357505 15.7443C0.280089 15.7102 0.210782 15.66 0.15414 15.5971C0.0974985 15.5342 0.054805 15.4601 0.028866 15.3795C0.00292712 15.299 -0.00566981 15.2139 0.00364036 15.1298L0.465391 10.932C0.481828 10.7979 0.54311 10.6732 0.639297 10.5782L10.45 0.767509C10.6282 0.58891 10.84 0.447218 11.073 0.350541C11.3061 0.253864 11.5559 0.204102 11.8083 0.204102C12.0606 0.204102 12.3104 0.253864 12.5435 0.350541C12.7766 0.447218 12.9883 0.58891 13.1665 0.767509L15.0315 2.6325C15.2101 2.81074 15.3518 3.02246 15.4485 3.25553C15.5452 3.4886 15.5949 3.73844 15.5949 3.99077C15.5949 4.24309 15.5452 4.49294 15.4485 4.72601C15.3518 4.95908 15.2101 5.17079 15.0315 5.34904L5.22682 15.1537C5.13185 15.2499 5.00718 15.3112 4.87301 15.3276L0.675278 15.7894L0.603317 15.7954ZM1.64076 11.2678L1.28095 14.5181L4.5312 14.1583L14.186 4.50349C14.2531 4.43664 14.3063 4.3572 14.3426 4.26973C14.3789 4.18226 14.3976 4.08848 14.3976 3.99377C14.3976 3.89906 14.3789 3.80528 14.3426 3.71781C14.3063 3.63034 14.2531 3.5509 14.186 3.48404L12.315 1.61305C12.2481 1.54597 12.1687 1.49274 12.0812 1.45642C11.9938 1.42009 11.9 1.4014 11.8053 1.4014C11.7106 1.4014 11.6168 1.42009 11.5293 1.45642C11.4418 1.49274 11.3624 1.54597 11.2955 1.61305L1.64076 11.2678Z" />
<path d="M13.1965 6.92619C13.1176 6.92665 13.0393 6.91152 12.9663 6.88168C12.8932 6.85184 12.8267 6.80787 12.7707 6.75229L9.04672 3.0163C8.99081 2.96039 8.94646 2.89401 8.9162 2.82096C8.88594 2.7479 8.87036 2.66961 8.87036 2.59053C8.87036 2.51146 8.88594 2.43316 8.9162 2.36011C8.94646 2.28705 8.99081 2.22068 9.04672 2.16476C9.10263 2.10885 9.16901 2.0645 9.24207 2.03424C9.31512 2.00398 9.39342 1.9884 9.47249 1.9884C9.55156 1.9884 9.62986 2.00398 9.70292 2.03424C9.77597 2.0645 9.84235 2.10885 9.89826 2.16476L13.6342 5.90075C13.6905 5.95649 13.7351 6.02282 13.7655 6.0959C13.796 6.16897 13.8116 6.24735 13.8116 6.32652C13.8116 6.40568 13.796 6.48406 13.7655 6.55714C13.7351 6.63021 13.6905 6.69654 13.6342 6.75229C13.5768 6.80932 13.5084 6.85413 13.4332 6.88402C13.3579 6.91391 13.2774 6.92826 13.1965 6.92619Z" />
<path d="M9.04985 5.90291L4.38123 10.5715L5.2293 11.4196L9.89792 6.75098L9.04985 5.90291Z" />
<path d="M17.3942 15.7954H7.79938C7.64034 15.7954 7.48781 15.7322 7.37535 15.6198C7.26289 15.5073 7.19971 15.3548 7.19971 15.1957C7.19971 15.0367 7.26289 14.8842 7.37535 14.7717C7.48781 14.6592 7.64034 14.5961 7.79938 14.5961H17.3942C17.5532 14.5961 17.7058 14.6592 17.8182 14.7717C17.9307 14.8842 17.9939 15.0367 17.9939 15.1957C17.9939 15.3548 17.9307 15.5073 17.8182 15.6198C17.7058 15.7322 17.5532 15.7954 17.3942 15.7954Z" />
</svg>
