<svg width="25" height="25" viewBox="0 0 25 25" fill="none" xmlns="http://www.w3.org/2000/svg">
<path d="M18.463 21.3502C18.3546 20.7073 17.7853 17.5731 16.3854 13.7279C19.8308 13.1766 22.8166 14.1222 23.0374 14.1944C22.805 15.6367 22.2793 17.0159 21.4924 18.2467C20.7056 19.4776 19.6745 20.5338 18.463 21.3502ZM12.4985 23.1735C10.0154 23.1771 7.60945 22.3114 5.69794 20.7267C5.83959 20.8406 5.93819 20.9128 5.93819 20.9128C5.93819 20.9128 7.98376 16.451 14.3149 14.2458C14.3371 14.2361 14.3621 14.2319 14.3857 14.2236C15.8883 18.1257 16.5076 21.3933 16.666 22.3264C15.3483 22.8861 13.93 23.1742 12.4985 23.1735ZM1.82481 12.4989C1.82481 12.385 1.83037 12.2739 1.83314 12.1614C2.02201 12.1656 7.29635 12.2864 12.7915 10.6409C13.097 11.238 13.3886 11.849 13.658 12.4558C13.5165 12.494 13.3761 12.5366 13.2372 12.5836C7.47688 14.4444 4.55503 19.6255 4.55503 19.6255L4.55919 19.631C2.79515 17.6747 1.82163 15.133 1.82481 12.4989ZM7.94349 2.84769C9.38188 4.81965 10.7057 6.8727 11.9083 8.99668C6.78391 10.3576 2.33447 10.3048 2.05395 10.2992C2.39399 8.68694 3.10264 7.17523 4.1244 5.88247C5.14616 4.58973 6.45332 3.55102 7.94349 2.84769ZM9.94185 2.13531L9.94046 2.13948L9.90713 2.14503L9.94185 2.13531ZM19.5475 4.49048C19.5212 4.53075 18.0019 6.84426 13.9718 8.35373C12.7862 6.18984 11.4541 4.10942 9.9849 2.12698C11.6517 1.71964 13.3923 1.72187 15.0581 2.13345C16.7237 2.54504 18.2652 3.35374 19.5503 4.49048H19.5475ZM23.1693 12.392C23.0165 12.3586 19.4031 11.581 15.7355 12.042L15.505 11.4935C15.2822 10.9707 15.0456 10.454 14.7954 9.94375C19.0101 8.22181 20.721 5.75 20.7418 5.72083C22.2915 7.60075 23.1485 9.95582 23.1693 12.392ZM24.7441 9.98402C24.5783 9.17877 24.3336 8.39177 24.0136 7.63441C23.07 5.40183 21.4969 3.4921 19.4864 2.13809C18.8182 1.68561 18.1076 1.29914 17.3645 0.984112C15.8244 0.334607 14.1699 0 12.4985 0C10.827 0 9.1725 0.334607 7.63242 0.984112C5.40098 1.92982 3.49169 3.50235 2.13588 5.51115C0.740142 7.57392 -0.00394156 10.0083 3.84976e-05 12.4989C-0.00413043 14.1701 0.330333 15.8249 0.98325 17.3634C1.2971 18.1077 1.68316 18.8201 2.13588 19.488C3.49153 21.4966 5.40091 23.0687 7.63242 24.0137C8.38887 24.3342 9.17559 24.578 9.98074 24.7413C12.4583 25.2543 15.0334 25.0006 17.3631 24.0137C18.1066 23.6991 18.8178 23.3132 19.4864 22.8611C20.1502 22.4125 20.7696 21.9029 21.3362 21.3377C22.8009 19.876 23.8789 18.073 24.4736 16.0911C25.0682 14.1092 25.1621 12.0106 24.7441 9.98402Z"/>
</svg>
