<svg width="440" height="332" viewBox="0 0 440 332"  xmlns="http://www.w3.org/2000/svg">
<path fill-rule="evenodd" clip-rule="evenodd" d="M0 0H439.371V331.469H0V0ZM30.655 30.655V300.814H408.716V30.655H30.655Z" />
<path fill-rule="evenodd" clip-rule="evenodd" d="M8.21987 29.9258L30.0391 8.39324L206.329 187.031C206.332 187.034 206.336 187.037 206.339 187.041C213.406 194.15 227.408 194.01 234.212 187.152L410.418 9.79465L432.165 31.4003L255.973 208.743C255.971 208.745 255.968 208.748 255.966 208.75C237.186 227.67 203.641 227.842 184.57 208.624L184.555 208.609L8.21987 29.9258Z" />
<path fill-rule="evenodd" clip-rule="evenodd" d="M171.236 178.848L36.1415 316.954L14.2275 295.517L149.323 157.411L171.236 178.848Z" />
<path fill-rule="evenodd" clip-rule="evenodd" d="M292.15 159.335L423.603 293.934L401.672 315.353L270.219 180.754L292.15 159.335Z" />
</svg>
