<svg width="25" height="25" viewBox="0 0 25 25" fill="none" xmlns="http://www.w3.org/2000/svg">
<path fill-rule="evenodd" clip-rule="evenodd" d="M12.5 0C5.5971 0 0 5.73691 0 12.8188C0 18.4831 3.58259 23.2825 8.54911 24.979C9.17411 25.0962 9.4029 24.7 9.4029 24.3595C9.4029 24.0526 9.39174 23.249 9.38616 22.1775C5.9096 22.9532 5.17299 20.4587 5.17299 20.4587C4.60379 18.9798 3.78348 18.5836 3.78348 18.5836C2.65067 17.7855 3.86719 17.8023 3.86719 17.8023C5.12277 17.8916 5.78125 19.1249 5.78125 19.1249C6.89732 21.0837 8.70536 20.5201 9.41964 20.1908C9.53125 19.3649 9.85491 18.7956 10.2121 18.4775C7.43862 18.1539 4.52009 17.0545 4.52009 12.1435C4.52009 10.7428 5.00558 9.59872 5.80357 8.70582C5.67522 8.38214 5.24554 7.07627 5.92634 5.31278C5.92634 5.31278 6.97545 4.96678 9.36384 6.62423C10.3627 6.33962 11.4286 6.2001 12.4944 6.19452C13.5547 6.2001 14.6261 6.33962 15.625 6.62423C18.0134 4.96678 19.0569 5.31278 19.0569 5.31278C19.7377 7.07627 19.308 8.38214 19.1797 8.70582C19.9777 9.6043 20.4632 10.7483 20.4632 12.1435C20.4632 17.0656 17.5391 18.1483 14.7545 18.4664C15.2009 18.8626 15.6027 19.6439 15.6027 20.8382C15.6027 22.5514 15.5859 23.9354 15.5859 24.354C15.5859 24.6944 15.8092 25.0962 16.4453 24.9678C21.423 23.2769 25 18.4775 25 12.8188C25 5.73691 19.4029 0 12.5 0Z" />
</svg>
