<svg width="26" height="25" viewBox="0 0 26 25" fill="none" xmlns="http://www.w3.org/2000/svg">
<path d="M13.4511 5.99814C9.9229 5.99814 6.99951 8.87112 6.99951 12.4498C6.99951 16.0284 9.8725 18.9014 13.4511 18.9014C17.0298 18.9014 19.9027 15.978 19.9027 12.4498C19.9027 8.92153 16.9794 5.99814 13.4511 5.99814ZM13.4511 16.5828C11.183 16.5828 9.31806 14.7179 9.31806 12.4498C9.31806 10.1816 11.183 8.31669 13.4511 8.31669C15.7193 8.31669 17.5842 10.1816 17.5842 12.4498C17.5842 14.7179 15.7193 16.5828 13.4511 16.5828Z" />
<path d="M20.1549 7.30861C20.9622 7.30861 21.6166 6.65419 21.6166 5.84692C21.6166 5.03965 20.9622 4.38522 20.1549 4.38522C19.3477 4.38522 18.6932 5.03965 18.6932 5.84692C18.6932 6.65419 19.3477 7.30861 20.1549 7.30861Z" />
<path d="M23.935 2.06653C22.6246 0.705645 20.7596 0 18.6427 0H8.25964C3.87456 0 0.951172 2.92339 0.951172 7.30847V17.6411C0.951172 19.8085 1.65682 21.6734 3.06811 23.0343C4.42899 24.3448 6.24351 25 8.31004 25H18.5923C20.7596 25 22.5742 24.2944 23.8846 23.0343C25.2455 21.7238 25.9512 19.8589 25.9512 17.6915V7.30847C25.9512 5.19153 25.2455 3.37702 23.935 2.06653ZM23.7334 17.6915C23.7334 19.254 23.179 20.5141 22.2717 21.371C21.3645 22.2278 20.1044 22.6815 18.5923 22.6815H8.31004C6.79795 22.6815 5.53787 22.2278 4.63061 21.371C3.72335 20.4637 3.26972 19.2036 3.26972 17.6411V7.30847C3.26972 5.79637 3.72335 4.53629 4.63061 3.62903C5.48746 2.77218 6.79795 2.31855 8.31004 2.31855H18.6931C20.2052 2.31855 21.4653 2.77218 22.3725 3.67944C23.2294 4.58669 23.7334 5.84677 23.7334 7.30847V17.6915Z" />
</svg>
