<svg width="22" height="17" viewBox="0 0 22 17" fill="none" xmlns="http://www.w3.org/2000/svg">
<path d="M20.0392 2.6726H16.502L14.3849 0.534519C14.3849 0.534519 14.3744 0.524038 14.3691 0.524038L14.3587 0.513558C14.0442 0.199135 13.6198 0 13.1376 0H8.73572C8.22216 0 7.76625 0.220096 7.44659 0.571202V0.576442L5.37663 2.6726H1.76077C0.786058 2.6726 0 3.43769 0 4.4124V15.0032C0 15.9779 0.786058 16.7692 1.76077 16.7692H20.0392C21.0087 16.7692 21.8 15.9779 21.8 15.0032V4.4124C21.8 3.43769 21.0087 2.6726 20.0392 2.6726ZM10.9 14.1228C8.23264 14.1228 6.05788 11.9428 6.05788 9.27024C6.05788 6.5924 8.23264 4.41764 10.9 4.41764C13.5726 4.41764 15.7421 6.5924 15.7421 9.27024C15.7421 11.9428 13.5726 14.1228 10.9 14.1228ZM19.7091 5.4762C19.3056 5.4762 18.9754 5.14606 18.9754 4.73731C18.9754 4.32856 19.3056 3.99841 19.7091 3.99841C20.1126 3.99841 20.4427 4.32856 20.4427 4.73731C20.4427 5.14606 20.1126 5.4762 19.7091 5.4762Z" />
<path d="M10.9 5.60193C8.87719 5.60193 7.24219 7.24217 7.24219 9.2702C7.24219 11.293 8.87719 12.9385 10.9 12.9385C12.9175 12.9385 14.5578 11.2982 14.5578 9.2702C14.5578 7.24217 12.9175 5.60193 10.9 5.60193Z" />
</svg>
