<svg width="18" height="14" viewBox="0 0 18 14" fill="none" xmlns="http://www.w3.org/2000/svg">
<path fill-rule="evenodd" clip-rule="evenodd" d="M3.72958 0.344641C4.17971 0.110632 4.73509 0 5.4 0C5.73137 0 6 0.261167 6 0.583333C6 0.905499 5.73137 1.16667 5.4 1.16667C4.86491 1.16667 4.5203 1.25656 4.29543 1.37346C4.08065 1.48511 3.94031 1.63907 3.83989 1.84043C3.61257 2.29626 3.6 2.94613 3.6 3.79167C3.6 3.81545 3.60001 3.83943 3.60003 3.86359C3.60041 4.60994 3.60088 5.52802 3.23989 6.25189C3.09922 6.53396 2.90386 6.78978 2.63964 7C2.90386 7.21022 3.09922 7.46604 3.23989 7.74811C3.60088 8.47198 3.60041 9.39006 3.60003 10.1364C3.60001 10.1606 3.6 10.1845 3.6 10.2083C3.6 11.0539 3.61257 11.7037 3.83989 12.1596C3.94031 12.3609 4.08065 12.5149 4.29543 12.6265C4.5203 12.7434 4.86491 12.8333 5.4 12.8333C5.73137 12.8333 6 13.0945 6 13.4167C6 13.7388 5.73137 14 5.4 14C4.73509 14 4.17971 13.8894 3.72958 13.6554C3.26935 13.4161 2.95969 13.0688 2.76011 12.6686C2.39912 11.9447 2.39959 11.0266 2.39998 10.2803C2.39999 10.2561 2.4 10.2321 2.4 10.2083C2.4 9.3628 2.38743 8.71292 2.16011 8.2571C2.05969 8.05573 1.91935 7.90178 1.70458 7.79012C1.47971 7.67322 1.13509 7.58333 0.6 7.58333C0.268629 7.58333 0 7.32217 0 7C0 6.67783 0.268629 6.41667 0.6 6.41667C1.13509 6.41667 1.47971 6.32678 1.70458 6.20987C1.91935 6.09822 2.05969 5.94427 2.16011 5.7429C2.38743 5.28708 2.4 4.6372 2.4 3.79167C2.4 3.76788 2.39999 3.7439 2.39998 3.71974C2.39959 2.9734 2.39912 2.05531 2.76011 1.33144C2.95969 0.931247 3.26935 0.583898 3.72958 0.344641ZM12 0.583333C12 0.261167 12.2686 0 12.6 0C13.2649 0 13.8203 0.110632 14.2704 0.344641C14.7307 0.583898 15.0403 0.931247 15.2399 1.33144C15.6009 2.05531 15.6004 2.9734 15.6 3.71975C15.6 3.7439 15.6 3.76788 15.6 3.79167C15.6 4.6372 15.6126 5.28708 15.8399 5.7429C15.9403 5.94427 16.0807 6.09822 16.2954 6.20987C16.5203 6.32678 16.8649 6.41667 17.4 6.41667C17.7314 6.41667 18 6.67783 18 7C18 7.32217 17.7314 7.58333 17.4 7.58333C16.8649 7.58333 16.5203 7.67322 16.2954 7.79012C16.0807 7.90178 15.9403 8.05573 15.8399 8.2571C15.6126 8.71292 15.6 9.3628 15.6 10.2083C15.6 10.2321 15.6 10.2561 15.6 10.2803C15.6004 11.0266 15.6009 11.9447 15.2399 12.6686C15.0403 13.0688 14.7307 13.4161 14.2704 13.6554C13.8203 13.8894 13.2649 14 12.6 14C12.2686 14 12 13.7388 12 13.4167C12 13.0945 12.2686 12.8333 12.6 12.8333C13.1351 12.8333 13.4797 12.7434 13.7046 12.6265C13.9193 12.5149 14.0597 12.3609 14.1601 12.1596C14.3874 11.7037 14.4 11.0539 14.4 10.2083C14.4 10.1845 14.4 10.1606 14.4 10.1364C14.3996 9.39006 14.3991 8.47198 14.7601 7.74811C14.9008 7.46604 15.0961 7.21022 15.3604 7C15.0961 6.78978 14.9008 6.53396 14.7601 6.25189C14.3991 5.52802 14.3996 4.60994 14.4 3.86359C14.4 3.83943 14.4 3.81545 14.4 3.79167C14.4 2.94613 14.3874 2.29626 14.1601 1.84043C14.0597 1.63907 13.9193 1.48511 13.7046 1.37346C13.4797 1.25656 13.1351 1.16667 12.6 1.16667C12.2686 1.16667 12 0.905499 12 0.583333Z"/>
</svg>
