<!-- <svg width="16" height="16" viewBox="0 0 16 16" xmlns="http://www.w3.org/2000/svg">
<path fill-rule="evenodd" clip-rule="evenodd" d="M8 1C4.13401 1 1 4.13401 1 8C1 11.866 4.13401 15 8 15C11.866 15 15 11.866 15 8C15 4.13401 11.866 1 8 1ZM0 8C0 3.58172 3.58172 0 8 0C12.4183 0 16 3.58172 16 8C16 12.4183 12.4183 16 8 16C3.58172 16 0 12.4183 0 8Z" />
<path fill-rule="evenodd" clip-rule="evenodd" d="M14.5 5H1.5V4H14.5V5Z" />
<path fill-rule="evenodd" clip-rule="evenodd" d="M14.5 12H1.5V11H14.5V12Z" />
<path fill-rule="evenodd" clip-rule="evenodd" d="M7.70896 0.0934309C7.70918 0.0932772 7.70938 0.0931333 8 0.5C8.29062 0.906867 8.29079 0.906742 8.29096 0.906626L8.28669 0.909759C8.28213 0.913118 8.2744 0.91887 8.26371 0.927013C8.24234 0.943302 8.20914 0.969139 8.1658 1.00452C8.07909 1.0753 7.95201 1.1841 7.79795 1.33082C7.48953 1.62455 7.07492 2.06844 6.65962 2.66173C5.83027 3.84651 5 5.62338 5 8C5 10.3766 5.83027 12.1535 6.65962 13.3383C7.07492 13.9316 7.48953 14.3754 7.79795 14.6692C7.95201 14.8159 8.07909 14.9247 8.1658 14.9955C8.20914 15.0309 8.24234 15.0567 8.26371 15.073C8.2744 15.0811 8.28213 15.0869 8.28669 15.0902L8.29096 15.0934C8.29079 15.0933 8.29062 15.0931 8 15.5C7.70938 15.9069 7.70918 15.9067 7.70896 15.9066L7.70723 15.9053L7.70381 15.9029L7.69323 15.8951C7.68454 15.8887 7.67262 15.8798 7.65767 15.8684C7.62778 15.8456 7.58579 15.8129 7.53342 15.7701C7.42873 15.6847 7.28236 15.5591 7.1083 15.3933C6.76047 15.0621 6.30008 14.5684 5.84038 13.9117C4.91973 12.5965 4 10.6234 4 8C4 5.37662 4.91973 3.40349 5.84038 2.08827C6.30008 1.43156 6.76047 0.937948 7.1083 0.606681C7.28236 0.440904 7.42873 0.315321 7.53342 0.229857C7.58579 0.187111 7.62778 0.154355 7.65767 0.131581C7.67262 0.120193 7.68454 0.111296 7.69323 0.10489L7.70381 0.0971458L7.70723 0.0946733L7.70847 0.0937867L7.70896 0.0934309Z" />
<path fill-rule="evenodd" clip-rule="evenodd" d="M7.70904 0.906626C7.70921 0.906742 7.70938 0.906867 8 0.5C8.29062 0.0931333 8.29082 0.0932772 8.29104 0.0934309L8.29153 0.0937867L8.29277 0.0946733L8.29619 0.0971458L8.30677 0.10489C8.31546 0.111296 8.32738 0.120193 8.34233 0.131581C8.37222 0.154355 8.41422 0.187111 8.46658 0.229857C8.57127 0.315321 8.71764 0.440904 8.8917 0.606681C9.23953 0.937948 9.69992 1.43156 10.1596 2.08827C11.0803 3.40349 12 5.37662 12 8C12 10.6234 11.0803 12.5965 10.1596 13.9117C9.69992 14.5684 9.23953 15.0621 8.8917 15.3933C8.71764 15.5591 8.57127 15.6847 8.46658 15.7701C8.41422 15.8129 8.37222 15.8456 8.34233 15.8684C8.32738 15.8798 8.31546 15.8887 8.30677 15.8951L8.29619 15.9029L8.29277 15.9053L8.29104 15.9066C8.29082 15.9067 8.29062 15.9069 8 15.5C7.70938 15.0931 7.70921 15.0933 7.70904 15.0934L7.71331 15.0902C7.71787 15.0869 7.7256 15.0811 7.73629 15.073C7.75766 15.0567 7.79086 15.0309 7.8342 14.9955C7.92092 14.9247 8.04799 14.8159 8.20205 14.6692C8.51047 14.3754 8.92508 13.9316 9.34038 13.3383C10.1697 12.1535 11 10.3766 11 8C11 5.62338 10.1697 3.84651 9.34038 2.66173C8.92508 2.06844 8.51047 1.62455 8.20205 1.33082C8.04799 1.1841 7.92092 1.0753 7.8342 1.00452C7.79086 0.969139 7.75766 0.943302 7.73629 0.927013C7.7256 0.91887 7.71787 0.913118 7.71331 0.909759L7.70904 0.906626Z" />
</svg> -->
<?xml version="1.0" ?><svg id="Capa_1" style="enable-background:new 0 0 471 439.5;" version="1.1" viewBox="0 0 471 439.5" xml:space="preserve" xmlns="http://www.w3.org/2000/svg" xmlns:xlink="http://www.w3.org/1999/xlink"><path d="M452.9,9.4C435.1-4.1,411.1-3,394.7,12.2l-0.5,0.4L213.7,207.8c-32.4,0.6-59.5,11.8-80.5,33.5c-12,12.4-20.2,27.4-26.1,39.2  c-6.9,13.9-13.1,28.1-19,41.8c-3.2,7.5-6.5,14.9-9.8,22.4c-11.2,24.7-23.7,41-40.6,52.6L0,422.4c0,0,37,14.9,80.6,17  c5.9,0.3,11.8,0,17.6-0.6c45.8-4.9,92-9.7,137.3-27.6c46.4-18.3,77.1-59.8,78.5-104.6c0-0.6,0-1.2,0-1.8L465.1,67.6l0.8-1.3  C476.1,46.3,470.7,22.9,452.9,9.4z M220.7,381.6c-49.2,19.4-99.2,28.1-148.9,25.8c16.4-16.8,26.1-35.5,32.5-49.6  c3.5-7.6,6.8-15.4,10-22.9c5.8-13.3,11.7-27.1,18.2-40.1c4.9-9.7,11.6-22,20.5-31.3c15.3-15.9,35.6-23.9,60.3-23.9c0.3,0,0.7,0,1,0  c20.1,0.2,36,6.7,48.6,20c0,0,7.4,7.6,11.4,18.1c2,5.3,3.6,10.5,4.2,15.2C283.3,329.8,259.6,366.3,220.7,381.6z M437.8,51.2  L305.2,259.4c-0.5-1.3-0.8-2.1-0.8-2.1c-12.1-27.8-52.3-43.8-52.3-43.8c-0.1,0-0.1,0-0.2-0.1L416.6,35.3c7.6-6.6,14.9-2,17-0.5  C435.7,36.4,442,42.1,437.8,51.2z"/></svg>