<svg width="34" height="27" viewBox="0 0 34 27" xmlns="http://www.w3.org/2000/svg">
<path d="M31.8002 2.18373C30.2861 0.727734 28.4109 0 26.4878 0C24.5647 0 22.6437 0.727734 21.1775 2.18373L18.874 4.47029C19.6767 4.8928 20.4396 5.39736 21.1004 6.05338C21.2676 6.21928 21.4138 6.3971 21.5648 6.57218L23.5814 4.57038C24.3575 3.79951 25.3456 3.375 26.4878 3.375C27.5858 3.375 28.618 3.79935 29.3942 4.56996C30.1703 5.34041 30.598 6.36504 30.598 7.45506C30.598 8.54508 30.1704 9.56971 29.3942 10.3402L22.3127 17.3696C21.5419 18.0932 20.506 18.5625 19.4116 18.5625C18.3173 18.5625 17.2813 18.1381 16.5052 17.3675C15.7248 16.5955 15.252 15.5725 15.252 14.4809C15.252 13.3893 15.6795 12.3662 16.4558 11.5958L16.6916 11.4117C16.5801 11.2061 16.4632 10.9951 16.2932 10.8264C15.8363 10.3729 15.236 10.125 14.5879 10.125C13.9542 10.125 13.3608 10.371 12.9087 10.809C11.2772 13.6545 11.6533 17.3269 14.0981 19.7527C15.5654 21.2098 17.4885 21.9375 19.4116 21.9375C21.3336 21.9375 23.2557 21.2098 24.7219 19.7538L31.8002 12.7248C33.3116 11.2245 34.0442 9.24381 33.9979 7.27734C33.9517 5.38418 33.2239 3.59437 31.8002 2.18373ZM12.4311 20.4293L10.4177 22.4279C9.64206 23.1557 8.60613 23.625 7.51177 23.625C6.41369 23.625 5.38149 23.2006 4.60534 22.43C3.8292 21.6596 3.40155 20.635 3.40155 19.5449C3.40155 18.4549 3.82914 17.4303 4.60534 16.6598L11.6868 9.63035C12.4576 8.85938 13.4458 8.4375 14.5879 8.4375C15.7301 8.4375 16.7182 8.86191 17.4944 9.63246C18.271 10.4029 18.6982 11.4275 18.6982 12.5176C18.6982 13.6076 18.2707 14.6322 17.4944 15.4027L17.3079 15.5883C17.4191 15.796 17.532 16.0046 17.7045 16.1763C18.1632 16.6271 18.7688 16.875 19.4116 16.875C20.0454 16.875 20.6388 16.629 21.0909 16.191C22.7223 13.3455 22.3462 9.67307 19.9014 7.24728C18.3863 5.79023 16.511 5.0625 14.5879 5.0625C12.6648 5.0625 10.747 5.79023 9.28081 7.2457L2.19988 14.2752C0.733646 15.7307 0 17.6386 0 19.5465C-5.3124e-06 21.4545 0.733115 23.3624 2.19988 24.8184C3.66611 26.2723 5.58867 27 7.51177 27C9.43381 27 11.3558 26.2723 12.8221 24.8163L15.1255 22.5297C14.3228 22.1072 13.56 21.6026 12.8991 20.9466C12.7286 20.7826 12.5851 20.6033 12.4311 20.4293Z"/>
</svg>
